g Kayoko_Original_Halo
v -0.14221546 0.10332593 0.001549989
v -0.14221546 0.10332593 -0.0015502572
v -0.14221546 -0.103325546 -0.0015502572
v -0.14221546 -0.103325546 0.001549989
v -0.17779416 0.12917468 -0.0015502572
v -0.17779416 0.12917468 0.001549989
v -0.17779416 -0.12917495 0.001549989
v -0.17779416 -0.12917495 -0.0015502572
v 0.05432141 -0.16718446 0.001549989
v -0.14221546 -0.103325546 0.001549989
v -0.14221546 -0.103325546 -0.0015502572
v 0.05432141 -0.16718446 -0.0015502572
v -0.08422503 -0.15957756 -0.0015502572
v -0.17779416 -0.12917495 -0.0015502572
v -0.17779416 -0.12917495 0.001549989
v -0.08422503 -0.15957756 0.001549989
v 0.05432141 -0.16718446 0.001549989
v 0.05432141 -0.16718446 -0.0015502572
v 0.1757881 -1.4901161E-07 0.001549989
v 0.1757881 -1.4901161E-07 -0.0015502572
v 0.12573998 -0.12941453 -0.0015502572
v 0.067911506 -0.20900956 -0.0015502572
v 0.067911506 -0.20900956 0.001549989
v 0.12573998 -0.12941453 0.001549989
v 0.05432141 0.16718483 0.001549989
v 0.1757881 -1.4901161E-07 0.001549989
v 0.1757881 -1.4901161E-07 -0.0015502572
v 0.05432141 0.16718483 -0.0015502572
v 0.21976529 -1.4901161E-07 -0.0015502572
v 0.21976529 -1.4901161E-07 0.001549989
v 0.067911506 0.20900929 0.001549989
v 0.067911506 0.20900929 -0.0015502572
v -0.14221546 0.10332593 0.001549989
v 0.05432141 0.16718483 0.001549989
v 0.05432141 0.16718483 -0.0015502572
v -0.14221546 0.10332593 -0.0015502572
v -0.02565828 0.17860669 -0.0015502572
v 0.067911506 0.20900929 -0.0015502572
v 0.067911506 0.20900929 0.001549989
v -0.02565828 0.17860669 0.001549989
v 0.067911506 -0.20900956 -0.0015502572
v -0.02565828 -0.17860694 -0.0015502572
v -0.02565828 -0.17860694 0.001549989
v 0.067911506 -0.20900956 0.001549989
v 0.21976529 -1.4901161E-07 -0.0015502572
v 0.16193616 -0.07959449 -0.0015502572
v 0.16193616 -0.07959449 0.001549989
v 0.21976529 -1.4901161E-07 0.001549989
v -0.17779416 0.12917468 -0.0015502572
v -0.08422503 0.15957731 -0.0015502572
v -0.08422503 0.15957731 0.001549989
v -0.17779416 0.12917468 0.001549989
v -0.08422503 -0.15957756 0.001549989
v -0.11897704 -0.3414567 0.0018664896
v -0.11897704 -0.3414567 -0.0018667579
v -0.08422503 -0.15957756 -0.0015502572
v -0.08422503 -0.15957756 -0.0015502572
v -0.11897704 -0.3414567 -0.0018667579
v -0.02565828 -0.17860694 -0.0015502572
v -0.14221546 -0.103325546 -0.0015502572
v -0.17779416 -0.12917495 -0.0015502572
v 0.05432141 -0.16718446 -0.0015502572
v -0.14221546 0.10332593 -0.0015502572
v 0.067911506 -0.20900956 -0.0015502572
v -0.17779416 0.12917468 -0.0015502572
v 0.12573998 -0.12941453 -0.0015502572
v -0.08422503 0.15957731 -0.0015502572
v 0.16193616 -0.07959449 -0.0015502572
v 0.2969572 -0.20631151 -0.0018667579
v 0.1757881 -1.4901161E-07 -0.0015502572
v 0.21976529 -1.4901161E-07 -0.0015502572
v 0.05432141 0.16718483 -0.0015502572
v 0.067911506 0.20900929 -0.0015502572
v -0.02565828 0.17860669 -0.0015502572
v -0.11897704 0.3661728 -0.0018667579
v -0.02565828 -0.17860694 -0.0015502572
v -0.11897704 -0.3414567 -0.0018667579
v -0.11897704 -0.3414567 0.0018664896
v -0.02565828 -0.17860694 0.001549989
v 0.12573998 -0.12941453 0.001549989
v 0.2969572 -0.20631151 0.0018658042
v 0.2969572 -0.20631151 -0.0018667579
v 0.12573998 -0.12941453 -0.0015502572
v 0.16193616 -0.07959449 -0.0015502572
v 0.2969572 -0.20631151 -0.0018667579
v 0.2969572 -0.20631151 0.0018658042
v 0.16193616 -0.07959449 0.001549989
v -0.02565828 0.17860669 0.001549989
v -0.11897704 0.3661728 0.0018658042
v -0.11897704 0.3661728 -0.0018667579
v -0.02565828 0.17860669 -0.0015502572
v -0.08422503 0.15957731 -0.0015502572
v -0.11897704 0.3661728 -0.0018667579
v -0.11897704 0.3661728 0.0018658042
v -0.08422503 0.15957731 0.001549989
v 0.096282154 0.06995466 0.03493476
v 0.096282154 0.06995466 0.03705311
v -0.03678316 0.113190204 0.03705311
v -0.03678316 0.113190204 0.03493476
v 0.096282154 -0.06995833 0.03493476
v -0.11902225 -1.4901161E-06 0.03705311
v 0.096282154 -0.06995833 0.03705311
v -0.11902225 -1.4901161E-06 0.03493476
v -0.03678316 -0.113193855 0.03493476
v -0.03678316 -0.113193855 0.03705311
v 0.06924772 0.050313205 0.03705311
v 0.06924772 0.050313205 0.03493476
v -0.02645731 0.081409544 0.03493476
v -0.02645731 0.081409544 0.03705311
v 0.06924772 -0.05031687 0.03705311
v -0.08560577 -1.4901161E-06 0.03493476
v 0.06924772 -0.05031687 0.03493476
v -0.08560577 -1.4901161E-06 0.03705311
v -0.02645731 -0.08141321 0.03705311
v -0.02645731 -0.08141321 0.03493476
v 0.06924772 0.050313205 0.03493476
v 0.096282154 0.06995466 0.03493476
v -0.03678316 0.113190204 0.03493476
v -0.02645731 0.081409544 0.03493476
v 0.06924772 -0.05031687 0.03493476
v -0.11902225 -1.4901161E-06 0.03493476
v 0.096282154 -0.06995833 0.03493476
v -0.08560577 -1.4901161E-06 0.03493476
v -0.02645731 -0.08141321 0.03493476
v -0.03678316 -0.113193855 0.03493476
vt 0.7207403 0.76916814
vt 0.7205488 0.76916814
vt 0.84812295 0.36079538
vt 0.84831446 0.36079538
vt 0.77486986 0.84222966
vt 0.77506137 0.84221494
vt 0.93456215 0.3316827
vt 0.93437064 0.33169746
vt 0.49947828 0.113205224
vt 0.84831446 0.36079538
vt 0.84812295 0.36079538
vt 0.49928674 0.113205224
vt 0.76829886 0.21381775
vt 0.93437064 0.33169746
vt 0.93456215 0.3316827
vt 0.76847565 0.21380301
vt 0.49947828 0.113205224
vt 0.49928674 0.113205224
vt 0.15629962 0.36855972
vt 0.1561081 0.36857447
vt 0.33487982 0.14373226
vt 0.49827015 0.022169253
vt 0.49844694 0.02215452
vt 0.33507133 0.14373226
vt 0.29305246 0.77395636
vt 0.15629962 0.36855972
vt 0.1561081 0.36857447
vt 0.29286093 0.77397114
vt 0.06924158 0.34140658
vt 0.069418386 0.34139186
vt 0.24038157 0.8482261
vt 0.24019003 0.8482261
vt 0.7207403 0.76916814
vt 0.29305246 0.77395636
vt 0.29286093 0.77397114
vt 0.7205488 0.76916814
vt 0.4438018 0.84594244
vt 0.24019003 0.8482261
vt 0.24038157 0.8482261
vt 0.44399333 0.8459277
vt 0.49827015 0.022169253
vt 0.6643419 0.14003424
vt 0.6645335 0.14003424
vt 0.49844694 0.02215452
vt 0.06924158 0.34140658
vt 0.23261721 0.21982886
vt 0.23280874 0.21981412
vt 0.069418386 0.34139186
vt 0.77486986 0.84222966
vt 0.57125807 0.8445133
vt 0.5714496 0.8444986
vt 0.77506137 0.84221494
vt 0.76847565 0.21380301
vt 0.81654984 0.08111648
vt 0.8163878 0.08113122
vt 0.76829886 0.21381775
vt 0.76829886 0.21381775
vt 0.8163878 0.08113122
vt 0.6643419 0.14003424
vt 0.84812295 0.36079538
vt 0.93437064 0.33169746
vt 0.49928674 0.113205224
vt 0.7205488 0.76916814
vt 0.49827015 0.022169253
vt 0.77486986 0.84222966
vt 0.33487982 0.14373226
vt 0.57125807 0.8445133
vt 0.23261721 0.21982886
vt 0.17698494 0.08830625
vt 0.1561081 0.36857447
vt 0.06924158 0.34140658
vt 0.29286093 0.77397114
vt 0.24019003 0.8482261
vt 0.4438018 0.84594244
vt 0.50777304 0.9876898
vt 0.6643419 0.14003424
vt 0.8163878 0.08113122
vt 0.81654984 0.08111648
vt 0.6645335 0.14003424
vt 0.33507133 0.14373226
vt 0.177147 0.08829151
vt 0.17698494 0.08830625
vt 0.33487982 0.14373226
vt 0.23261721 0.21982886
vt 0.17698494 0.08830625
vt 0.177147 0.08829151
vt 0.23280874 0.21981412
vt 0.44399333 0.8459277
vt 0.5079351 0.9876751
vt 0.50777304 0.9876898
vt 0.4438018 0.84594244
vt 0.57125807 0.8445133
vt 0.50777304 0.9876898
vt 0.5079351 0.9876751
vt 0.5714496 0.8444986
vt 0.24877945 0.5613721
vt 0.24891204 0.5613721
vt 0.508716 0.74575716
vt 0.50856864 0.74577194
vt 0.34379336 0.25723624
vt 0.76429147 0.555582
vt 0.34394068 0.25723624
vt 0.76415884 0.55559677
vt 0.66230875 0.25367084
vt 0.6624561 0.2536561
vt 0.3210012 0.537033
vt 0.3208686 0.53704774
vt 0.5077141 0.66967535
vt 0.50786144 0.66966057
vt 0.38934818 0.31829032
vt 0.6915393 0.532893
vt 0.38920084 0.31830505
vt 0.69168663 0.5328783
vt 0.61843354 0.31572676
vt 0.6182862 0.31572676
vt 0.3208686 0.53704774
vt 0.24877945 0.5613721
vt 0.50856864 0.74577194
vt 0.5077141 0.66967535
vt 0.38920084 0.31830505
vt 0.76415884 0.55559677
vt 0.34379336 0.25723624
vt 0.6915393 0.532893
vt 0.6182862 0.31572676
vt 0.66230875 0.25367084
vn 0.9999995 0.0009775162 -0
vn 0.9999995 0.0009775162 -0
vn 0.9999995 0.0009775162 -0
vn 0.9999995 0.0009775162 -0
vn -0.9999995 0.0009775162 -0
vn -0.9999995 0.0009775162 -0
vn -0.9999995 0.0009775162 -0
vn -0.9999995 0.0009775162 -0
vn 0.30977094 0.9508112 -0
vn 0.30977094 0.9508112 -0
vn 0.30977094 0.9508112 -0
vn 0.30977094 0.9508112 -0
vn -0.30977094 -0.9508112 -0
vn -0.30977094 -0.9508112 -0
vn -0.30977094 -0.9508112 -0
vn -0.30977094 -0.9508112 -0
vn -0.80840623 0.58748746 -0.036576714
vn -0.80840623 0.58748746 -0.036576714
vn -0.80840623 0.58748746 -0.036576714
vn -0.80840623 0.58748746 -0.036576714
vn 0.80840623 -0.58748746 -0.036576714
vn 0.80840623 -0.58748746 -0.036576714
vn 0.80840623 -0.58748746 -0.036576714
vn 0.80840623 -0.58748746 -0.036576714
vn -0.80840623 -0.58748746 -0.036576714
vn -0.80840623 -0.58748746 -0.036576714
vn -0.80840623 -0.58748746 -0.036576714
vn -0.80840623 -0.58748746 -0.036576714
vn 0.80840623 0.58748746 -0.036576714
vn 0.80840623 0.58748746 -0.036576714
vn 0.80840623 0.58748746 -0.036576714
vn 0.80840623 0.58748746 -0.036576714
vn 0.30977094 -0.9508112 -0
vn 0.30977094 -0.9508112 -0
vn 0.30977094 -0.9508112 -0
vn 0.30977094 -0.9508112 -0
vn -0.30977094 0.9508112 -0
vn -0.30977094 0.9508112 -0
vn -0.30977094 0.9508112 -0
vn -0.30977094 0.9508112 -0
vn -0.30977094 -0.9508112 -0
vn -0.30977094 -0.9508112 -0
vn -0.30977094 -0.9508112 -0
vn -0.30977094 -0.9508112 -0
vn 0.80840623 -0.58748746 -0.036576714
vn 0.80840623 -0.58748746 -0.036576714
vn 0.80840623 -0.58748746 -0.036576714
vn 0.80840623 -0.58748746 -0.036576714
vn -0.30977094 0.9508112 -0
vn -0.30977094 0.9508112 -0
vn -0.30977094 0.9508112 -0
vn -0.30977094 0.9508112 -0
vn -0.98240423 0.18670571 0.0047884407
vn -0.98240423 0.18670571 0.0047884407
vn -0.98240423 0.18670571 0.0047884407
vn -0.98240423 0.18670571 0.0047884407
vn -0.0009775162 0.0009775162 -0.99999905
vn 0.0009775162 0.0009775162 -0.99999905
vn 0.0009775162 0.0009775162 -0.99999905
vn -0.0009775162 0.0009775162 -0.99999905
vn -0.0009775162 0.0009775162 -0.99999905
vn -0.0009775162 0.0009775162 -0.99999905
vn -0.0009775162 0.0009775162 -0.99999905
vn -0.0009775162 0.0009775162 -0.99999905
vn -0.0009775162 0.0009775162 -0.99999905
vn -0.0009775162 0.0009775162 -0.99999905
vn 0.0009775162 -0.0009775162 -0.99999905
vn -0.0009775162 0.0009775162 -0.99999905
vn -0.0009775162 0.0009775162 -0.99999905
vn -0.0009775162 0.0009775162 -0.99999905
vn -0.0009775162 0.0009775162 -0.99999905
vn -0.0009775162 0.0009775162 -0.99999905
vn -0.0009775162 0.0009775162 -0.99999905
vn -0.0009775162 0.0009775162 -0.99999905
vn 0.0009775162 -0.0009775162 -0.99999905
vn 0.86705726 -0.49755597 0.025489906
vn 0.86705726 -0.49755597 0.025489906
vn 0.86705726 -0.49755597 0.025489906
vn 0.86705726 -0.49755597 0.025489906
vn -0.40957952 -0.912023 0.021416295
vn -0.40957952 -0.912023 0.021416295
vn -0.40957952 -0.912023 0.021416295
vn -0.40957952 -0.912023 0.021416295
vn 0.6852392 0.7282499 0.009965005
vn 0.6852392 0.7282499 0.009965005
vn 0.6852392 0.7282499 0.009965005
vn 0.6852392 0.7282499 0.009965005
vn 0.8944277 0.4447701 -0.046675418
vn 0.8944277 0.4447701 -0.046675418
vn 0.8944277 0.4447701 -0.046675418
vn 0.8944277 0.4447701 -0.046675418
vn -0.9862615 -0.16519146 -0
vn -0.9862615 -0.16519146 -0
vn -0.9862615 -0.16519146 -0
vn -0.9862615 -0.16519146 -0
vn 0.80840623 0.58748746 -0.036576714
vn 0.80840623 0.58748746 -0.036576714
vn -0.30977094 0.9508112 -0
vn -0.30977094 0.9508112 -0
vn 0.80840623 -0.58748746 -0.036576714
vn -0.9999995 0.0009775162 -0
vn 0.80840623 -0.58748746 -0.036576714
vn -0.9999995 0.0009775162 -0
vn -0.30977094 -0.9508112 -0
vn -0.30977094 -0.9508112 -0
vn -0.80840623 -0.58748746 -0.036576714
vn -0.80840623 -0.58748746 -0.036576714
vn 0.30977094 -0.9508112 -0
vn 0.30977094 -0.9508112 -0
vn -0.80840623 0.58748746 -0.036576714
vn 0.9999995 0.0009775162 -0
vn -0.80840623 0.58748746 -0.036576714
vn 0.9999995 0.0009775162 -0
vn 0.30977094 0.9508112 -0
vn 0.30977094 0.9508112 -0
vn 0.0009775162 -0.0009775162 -0.99999905
vn 0.0009775162 -0.0009775162 -0.99999905
vn 0.0009775162 -0.0009775162 -0.99999905
vn 0.0009775162 -0.0009775162 -0.99999905
vn 0.0009775162 -0.0009775162 -0.99999905
vn 0.0009775162 -0.0009775162 -0.99999905
vn 0.0009775162 -0.0009775162 -0.99999905
vn 0.0009775162 -0.0009775162 -0.99999905
vn 0.0009775162 -0.0009775162 -0.99999905
vn 0.0009775162 -0.0009775162 -0.99999905
g Kayoko_Original_Halo_0
f 3/3/3 2/2/2 1/1/1
f 4/4/4 3/3/3 1/1/1
f 7/7/7 6/6/6 5/5/5
f 8/8/8 7/7/7 5/5/5
f 11/11/11 10/10/10 9/9/9
f 12/12/12 11/11/11 9/9/9
f 15/15/15 14/14/14 13/13/13
f 16/16/16 15/15/15 13/13/13
f 19/19/19 18/18/18 17/17/17
f 20/20/20 18/18/18 19/19/19
f 23/23/23 22/22/22 21/21/21
f 24/24/24 23/23/23 21/21/21
f 27/27/27 26/26/26 25/25/25
f 28/28/28 27/27/27 25/25/25
f 31/31/31 30/30/30 29/29/29
f 32/32/32 31/31/31 29/29/29
f 35/35/35 34/34/34 33/33/33
f 36/36/36 35/35/35 33/33/33
f 39/39/39 38/38/38 37/37/37
f 40/40/40 39/39/39 37/37/37
f 43/43/43 42/42/42 41/41/41
f 44/44/44 43/43/43 41/41/41
f 47/47/47 46/46/46 45/45/45
f 48/48/48 47/47/47 45/45/45
f 51/51/51 50/50/50 49/49/49
f 52/52/52 51/51/51 49/49/49
f 55/55/55 54/54/54 53/53/53
f 56/56/56 55/55/55 53/53/53
f 59/59/59 58/58/58 57/57/57
f 59/59/59 57/57/57 60/60/60
f 57/57/57 61/61/61 60/60/60
f 62/62/62 59/59/59 60/60/60
f 60/60/60 61/61/61 63/63/63
f 64/64/64 59/59/59 62/62/62
f 61/61/61 65/65/65 63/63/63
f 66/66/66 64/64/64 62/62/62
f 65/65/65 67/67/67 63/63/63
f 68/68/68 66/66/66 62/62/62
f 68/68/68 69/69/69 66/66/66
f 70/70/70 68/68/68 62/62/62
f 71/71/71 68/68/68 70/70/70
f 71/71/71 70/70/70 72/72/72
f 73/73/73 71/71/71 72/72/72
f 74/74/74 73/73/73 72/72/72
f 74/74/74 72/72/72 63/63/63
f 67/67/67 74/74/74 63/63/63
f 67/67/67 75/75/75 74/74/74
f 78/78/78 77/77/77 76/76/76
f 79/79/79 78/78/78 76/76/76
f 82/82/82 81/81/81 80/80/80
f 83/83/83 82/82/82 80/80/80
f 86/86/86 85/85/85 84/84/84
f 87/87/87 86/86/86 84/84/84
f 90/90/90 89/89/89 88/88/88
f 91/91/91 90/90/90 88/88/88
f 94/94/94 93/93/93 92/92/92
f 95/95/95 94/94/94 92/92/92
f 98/98/98 97/97/97 96/96/96
f 99/99/99 98/98/98 96/96/96
f 96/96/96 97/97/97 100/100/100
f 101/101/101 98/98/98 99/99/99
f 97/97/97 102/102/102 100/100/100
f 103/103/103 101/101/101 99/99/99
f 100/100/100 102/102/102 104/104/104
f 105/105/105 101/101/101 103/103/103
f 104/104/104 105/105/105 103/103/103
f 102/102/102 105/105/105 104/104/104
f 108/108/108 107/107/107 106/106/106
f 109/109/109 108/108/108 106/106/106
f 106/106/106 107/107/107 110/110/110
f 111/111/111 108/108/108 109/109/109
f 107/107/107 112/112/112 110/110/110
f 113/113/113 111/111/111 109/109/109
f 110/110/110 112/112/112 114/114/114
f 115/115/115 111/111/111 113/113/113
f 114/114/114 115/115/115 113/113/113
f 112/112/112 115/115/115 114/114/114
f 118/118/118 117/117/117 116/116/116
f 119/119/119 118/118/118 116/116/116
f 116/116/116 117/117/117 120/120/120
f 121/121/121 118/118/118 119/119/119
f 117/117/117 122/122/122 120/120/120
f 123/123/123 121/121/121 119/119/119
f 120/120/120 122/122/122 124/124/124
f 125/125/125 121/121/121 123/123/123
f 124/124/124 125/125/125 123/123/123
f 122/122/122 125/125/125 124/124/124
